<svg width="24" height="24" viewBox="0 0 24 24" fill="none" xmlns="http://www.w3.org/2000/svg">
<path fill-rule="evenodd" clip-rule="evenodd" d="M4.58569 12L9.99991 6.58578V3.58578L1.58569 12L9.99991 20.4142V17.4142L4.58569 12ZM13.9999 15.8338V20.4142L5.58569 12L13.9999 3.58578V8.03493C19.261 8.41289 21.9999 11.8507 21.9999 18V20.4142L20.2928 18.7071C18.1236 16.5379 16.0443 15.6089 13.9999 15.8338ZM11.9999 8.41421L8.41412 12L11.9999 15.5858V14.2192L12.7574 14.0299C15.1527 13.431 17.5261 14.0018 19.8395 15.6825C19.2494 11.81 17.022 10 12.9999 10H11.9999V8.41421Z" fill="black"/>
</svg>
