<svg width="24" height="24" viewBox="0 0 24 24" fill="none" xmlns="http://www.w3.org/2000/svg">
<path fill-rule="evenodd" clip-rule="evenodd" d="M1.29297 21.2928L2.70718 22.7071L7.53827 17.876C11.9732 21.9022 17.4403 23.2993 20.1042 20.6339C20.569 20.1858 20.9626 19.792 21.2729 19.464C22.168 18.518 22.3039 16.8597 21.2671 15.7824C20.7355 15.2301 19.6505 14.3885 17.7331 13.017C17.1458 12.4919 16.4495 12.6057 15.8112 13.0245C15.5041 13.2259 15.2806 13.4297 14.8587 13.8521L14.0924 14.6188C14.0104 14.7008 13.0896 14.2628 12.0334 13.3808L22.7072 2.70706L21.293 1.29285L1.29297 21.2928ZM10.6099 14.8043L8.95409 16.4602C12.6779 19.8026 16.9984 20.913 18.7039 19.2068C19.1614 18.7655 19.5343 18.3924 19.8213 18.0891C20.0287 17.8699 20.0658 17.4176 19.8272 17.1697C19.4299 16.7569 18.4571 15.9984 16.7774 14.7922C16.655 14.8908 16.5045 15.0337 16.2723 15.2661L15.5059 16.033C14.3536 17.1859 12.4847 16.4497 10.6099 14.8043ZM9.37449 9.89864C9.33845 9.93467 9.4036 10.1341 9.5634 10.4366L8.09267 11.9074C7.28719 10.5666 7.1137 9.33171 7.9615 8.48398L8.72752 7.71754C8.8501 7.59484 8.90617 7.538 8.97347 7.46727C9.06517 7.3709 9.14052 7.28625 9.20085 7.21136C8.03548 5.58801 7.24328 4.57366 6.81622 4.15179C6.59566 3.93392 6.1018 3.97403 5.92049 4.15268C5.43694 4.62914 5.278 4.788 4.77634 5.29751C3.29599 6.77867 3.95997 10.2693 6.38452 13.6155L4.95415 15.0459C1.84985 10.9124 0.97478 6.27274 3.35761 3.88863C3.8613 3.37702 4.02737 3.21104 4.51793 2.72767C5.43126 1.82774 7.16603 1.68683 8.22058 2.72856C8.77529 3.27652 9.65963 4.41436 10.9746 6.25433C11.5605 6.90387 11.3748 7.63972 10.8567 8.33793C10.7338 8.50346 10.5922 8.66657 10.4212 8.8463C10.3391 8.93256 10.2751 8.99744 10.1413 9.13145L9.37449 9.89864Z" fill="black"/>
</svg>
