<svg width="24" height="24" viewBox="0 0 24 24" fill="none" xmlns="http://www.w3.org/2000/svg">
<path fill-rule="evenodd" clip-rule="evenodd" d="M2.70718 1.29285L1.29297 2.70706L5.28389 6.69798C4.13198 7.3251 3.04952 8.12593 2.07499 9.10046C2.0499 9.12555 2.02493 9.1507 2.00008 9.17593L3.41434 10.5902C3.43916 10.5649 3.46411 10.5398 3.4892 10.5147C4.47246 9.53142 5.58389 8.75446 6.76972 8.18381L8.24546 9.65955C6.97251 10.1464 5.77903 10.9029 4.75303 11.9289L6.16724 13.3431C7.21933 12.291 8.49155 11.5932 9.83563 11.2497L11.5904 13.0045C10.1337 13.0609 8.69358 13.6452 7.58146 14.7573L8.99567 16.1715C10.5578 14.6094 13.0904 14.6094 14.6525 16.1715L14.705 16.1191L21.293 22.7071L22.7072 21.2928L2.70718 1.29285ZM13.3272 9.11291L17.5192 13.3049L18.8952 11.9289C17.326 10.3597 15.3651 9.42106 13.3272 9.11291ZM9.44364 5.2293L11.2368 7.02251C14.516 6.82179 17.8619 7.96088 20.3842 10.4398L21.7985 9.02554C18.4244 5.70124 13.7827 4.43582 9.44364 5.2293ZM13.2383 17.5857C12.4573 16.8047 11.1909 16.8047 10.4099 17.5857L11.8241 19L13.2383 17.5857Z" fill="black"/>
</svg>
